<svg width="1200" height="800" viewBox="0 0 1200 800" fill="none" xmlns="http://www.w3.org/2000/svg">
  <defs>
    <linearGradient id="paint0_linear" x1="1200" y1="0" x2="0" y2="800" gradientUnits="userSpaceOnUse">
      <stop stop-color="#E8F1FF"/>
      <stop offset="1" stop-color="#F8FBFF"/>
    </linearGradient>
    <linearGradient id="paint1_linear" x1="200" y1="120" x2="680" y2="640" gradientUnits="userSpaceOnUse">
      <stop stop-color="#1B6EF3" stop-opacity="0.22"/>
      <stop offset="1" stop-color="#6EA8FF" stop-opacity="0.15"/>
    </linearGradient>
  </defs>
  <rect width="1200" height="800" rx="48" fill="url(#paint0_linear)"/>
  <path d="M140 620C260 480 430 430 560 470C690 510 780 640 940 650C1040 656 1120 620 1200 560V800H0V700C40 680 90 660 140 620Z" fill="#E1ECFF"/>
  <path d="M80 260C210 190 360 180 470 230C580 280 640 380 760 410C900 450 1010 420 1120 360L1200 320V0H0V180C20 210 50 240 80 260Z" fill="#EEF5FF"/>
  <circle cx="260" cy="260" r="150" fill="url(#paint1_linear)"/>
  <circle cx="900" cy="250" r="120" fill="#D6E6FF"/>
  <rect x="720" y="430" width="320" height="200" rx="32" fill="#FFFFFF"/>
  <rect x="760" y="470" width="240" height="16" rx="8" fill="#D6E6FF"/>
  <rect x="760" y="510" width="200" height="16" rx="8" fill="#E4EEFF"/>
  <rect x="760" y="550" width="160" height="16" rx="8" fill="#ECF3FF"/>
  <circle cx="520" cy="580" r="90" fill="#E0EBFF"/>
  <circle cx="520" cy="580" r="48" fill="#FFFFFF"/>
</svg>
