<svg width="360" height="88" viewBox="0 0 360 88" fill="none" xmlns="http://www.w3.org/2000/svg">
  <rect width="88" height="88" rx="16" fill="#0B1F3A"/>
  <path d="M25 54.5C26.8 59.2 30.8 62 36.2 62C41.2 62 44.1 59.7 44.1 56.1C44.1 52.8 42 51.2 36 49.8L33.3 49.2C26.1 47.6 22.2 43.5 22.2 37.2C22.2 29.4 28.5 24 37.4 24C45.7 24 51.3 28 53.8 35.5L46.9 38.1C45.2 33.6 42.1 31.5 37.5 31.5C33.2 31.5 30.5 33.7 30.5 37C30.5 40 32.6 41.7 37.7 42.9L40.5 43.5C48.3 45.2 52.5 49 52.5 55.8C52.5 64 46 69.4 36 69.4C26.3 69.4 19.8 64.8 17.2 56.8L25 54.5Z" fill="white"/>
  <text x="108" y="38" fill="#0B1F3A" font-family="Arial, Helvetica, sans-serif" font-size="34" font-weight="700">SCP</text>
  <text x="108" y="66" fill="#334155" font-family="Arial, Helvetica, sans-serif" font-size="24" font-weight="500">Advisory</text>
</svg>
